/* XPM */
static char * icon_xpm[] = {
"48 48 218 2",
"  	c None",
". 	c #E10D35",
"+ 	c #E11533",
"@ 	c #E1342D",
"# 	c #E15825",
"$ 	c #E16B22",
"% 	c #E11E31",
"& 	c #E19719",
"* 	c #E1BC11",
"= 	c #E1CF0E",
"- 	c #E1B413",
"; 	c #E1D50D",
"> 	c #E1BE11",
", 	c #E16024",
"' 	c #D60E3F",
") 	c #BF1355",
"! 	c #A01972",
"~ 	c #8F1C82",
"{ 	c #D93334",
"] 	c #E1B912",
"^ 	c #E14A28",
"/ 	c #690B37",
"( 	c #5E1B64",
"_ 	c #442C9B",
": 	c #3B30BF",
"< 	c #362ED3",
"[ 	c #372FD3",
"} 	c #4538C0",
"| 	c #6438A1",
"1 	c #9D4C66",
"2 	c #D2B122",
"3 	c #E1D30D",
"4 	c #E19819",
"5 	c #E11A32",
"6 	c #03020D",
"7 	c #1E1456",
"8 	c #2D26B6",
"9 	c #352DD9",
"0 	c #3B33C1",
"a 	c #7B7260",
"b 	c #D0C414",
"c 	c #E1C60F",
"d 	c #000000",
"e 	c #0A082A",
"f 	c #251F98",
"g 	c #2D27BC",
"h 	c #1C1943",
"i 	c #423E03",
"j 	c #807907",
"k 	c #B4AB0A",
"l 	c #D7CB0C",
"m 	c #E1D40D",
"n 	c #E1811D",
"o 	c #E11233",
"p 	c #141153",
"q 	c #3029C6",
"r 	c #342CD8",
"s 	c #241F96",
"t 	c #03030E",
"u 	c #070600",
"v 	c #2E2C02",
"w 	c #777006",
"x 	c #BEB40B",
"y 	c #DDD10C",
"z 	c #E1B313",
"A 	c #E12230",
"B 	c #1C1875",
"C 	c #342CD7",
"D 	c #2F28C3",
"E 	c #0D0B39",
"F 	c #060500",
"G 	c #444103",
"H 	c #ACA209",
"I 	c #D9CE0C",
"J 	c #E1CD0E",
"K 	c #E1392C",
"L 	c #221D8D",
"M 	c #342CD5",
"N 	c #171360",
"O 	c #0C0B00",
"P 	c #676105",
"Q 	c #CAC00B",
"R 	c #E15D24",
"S 	c #231D8F",
"T 	c #231E93",
"U 	c #1E1C01",
"V 	c #938B08",
"W 	c #DACE0C",
"X 	c #E1791F",
"Y 	c #1F1A7F",
"Z 	c #3029C7",
"` 	c #050416",
" .	c #070700",
"..	c #534F04",
"+.	c #B87216",
"@.	c #DD0C34",
"#.	c #020200",
"$.	c #312005",
"%.	c #910822",
"&.	c #D30C31",
"*.	c #140104",
"=.	c #80071E",
"-.	c #D00C31",
";.	c #332BD3",
">.	c #1A166B",
",.	c #070001",
"'.	c #660518",
").	c #D10C31",
"!.	c #2E27BE",
"~.	c #2D26B8",
"{.	c #080002",
"].	c #6E0619",
"^.	c #CC0B30",
"/.	c #26219F",
"(.	c #342CD6",
"_.	c #16135C",
":.	c #0A0002",
"<.	c #CE0B30",
"[.	c #221D8C",
"}.	c #3129C8",
"|.	c #13104F",
"1.	c #020109",
"2.	c #160105",
"3.	c #7E071D",
"4.	c #1A166C",
"5.	c #3028C4",
"6.	c #16125B",
"7.	c #040312",
"8.	c #2E020A",
"9.	c #110F48",
"0.	c #3129C9",
"a.	c #2E27C0",
"b.	c #131051",
"c.	c #130104",
"d.	c #76061B",
"e.	c #06051C",
"f.	c #2923AB",
"g.	c #020000",
"h.	c #71061A",
"i.	c #000003",
"j.	c #191567",
"k.	c #520413",
"l.	c #010105",
"m.	c #050417",
"n.	c #0F0D3F",
"o.	c #2E27BD",
"p.	c #191566",
"q.	c #480411",
"r.	c #03020C",
"s.	c #0F0C3E",
"t.	c #4F0412",
"u.	c #141155",
"v.	c #2F28C1",
"w.	c #010000",
"x.	c #70061A",
"y.	c #0B092D",
"z.	c #2C26B7",
"A.	c #0F0003",
"B.	c #960823",
"C.	c #2C25B5",
"D.	c #34030C",
"E.	c #C30B2E",
"F.	c #2721A0",
"G.	c #332BD1",
"H.	c #2721A3",
"I.	c #090201",
"J.	c #870C1E",
"K.	c #312ACC",
"L.	c #201B84",
"M.	c #0C0A32",
"N.	c #4B3B06",
"O.	c #D05621",
"P.	c #231E92",
"Q.	c #302D02",
"R.	c #B0A70A",
"S.	c #E1BB12",
"T.	c #E16223",
"U.	c #E11B32",
"V.	c #16125A",
"W.	c #2923A9",
"X.	c #110E46",
"Y.	c #211F01",
"Z.	c #A19809",
"`.	c #E1BD11",
" +	c #060519",
".+	c #26209C",
"++	c #322ACD",
"@+	c #1E197C",
"#+	c #06051A",
"$+	c #A79E09",
"%+	c #0D0B37",
"&+	c #26209D",
"*+	c #25209A",
"=+	c #0E0C3C",
"-+	c #282602",
";+	c #5F5A05",
">+	c #B4AA0A",
",+	c #080621",
"'+	c #16135D",
")+	c #241F95",
"!+	c #2C25B4",
"~+	c #2C25B6",
"{+	c #2822A5",
"]+	c #1E1A7E",
"^+	c #0B0A00",
"/+	c #433F03",
"(+	c #7D7607",
"_+	c #A59D09",
":+	c #D2C60C",
"<+	c #090900",
"[+	c #1E1D01",
"}+	c #615C05",
"|+	c #C2B70B",
"1+	c #030300",
"2+	c #252302",
"3+	c #3F3C03",
"4+	c #484404",
"5+	c #5C5705",
"                                                                                                ",
"                                                                                                ",
"                                                                                                ",
"                                                                                                ",
"                                                        . . . . . . . . . . .                   ",
"                                                . . . . . . . . . . . . . . . .                 ",
"                                          . . . . . . . . . . . . . . . . . . . .               ",
"                                    . . . . . . . . . . . . . . . . . . . . . . . .             ",
"                            . . . . . . + @ # $ $ # @ + . . . . . . . . . . . . . .             ",
"                          . . . . . . % # & * = = * & # % . . . . . . . . . . . . .             ",
"                        . . . . . . + # - ; ; ; ; ; ; > , + . . . . . . . . . . . .             ",
"                      ' ) ! ~ ~ ! ) { & ; ; ; ; ; ; ; ; ] ^ . . . . . . . . . . . . .           ",
"                    / ( _ : < [ } | 1 2 ; ; ; ; ; ; ; ; 3 4 5 . . . . . . . . . . . .           ",
"                  6 7 8 9 9 9 9 9 9 0 a b ; ; ; ; ; ; ; ; c ^ . . . . . . . . . . .             ",
"                d e f 9 9 9 9 9 9 9 9 g h i j k l ; ; ; ; m n o . . . . . . . . . .             ",
"              d d p q 9 9 9 9 9 9 9 9 r s t u v w x y ; ; ; z A . . . . . . . . .               ",
"            d d d B C 9 9 9 9 9 9 9 9 9 D E d d F G H I ; ; J K . . . . . . . .                 ",
"            d d d L r 9 9 9 9 9 9 9 9 9 M N d d d d O P Q ; m R . . . . . . .                   ",
"            d d d S r 9 9 9 9 9 9 9 9 9 9 T d d d d d d U V W X . . . . .                       ",
"          d d d d Y 9 9 9 9 9 9 9 9 9 9 9 Z ` d d d d d d  ...+.@.. . .                         ",
"          d d d d N 9 9 9 9 9 9 9 9 9 9 9 C B d d d d d d d #.$.%.&.. .                         ",
"          d d d d E r 9 9 9 9 9 9 9 9 9 9 9 Z ` d d d d d d d d *.=.-..                         ",
"        d d d d d t ;.9 9 9 9 9 9 9 9 9 9 9 C >.d d d d d d d d d ,.'.)..                       ",
"        d d d d d d !.9 9 9 9 9 9 9 9 9 9 9 9 ~.t d d d d d d d d d {.].^.                      ",
"      d d d d d d d /.9 9 9 9 9 9 9 9 9 9 9 9 (._.d d d d d d d d d d :.=.<.                    ",
"      d d d d d d d [.9 9 9 9 9 9 9 9 9 9 9 9 9 }.|.1.d d d d d d d d d 2.3.                    ",
"      d d d d d d d 4.C 9 9 9 9 9 9 9 9 9 9 9 9 9 5.6.7.d d d d d d d d d 8.                    ",
"    d d d d d d d d 9.0.9 9 9 9 9 9 9 9 9 9 9 9 9 9 a.b.1.d d d d d d d d c.d.                  ",
"    d d d d d d d d e.f.9 9 9 9 9 9 9 9 9 9 9 9 9 9 9 s e d d d d d d d d g.h..                 ",
"    d d d d d d d d i.j.;.9 9 9 9 9 9 9 9 9 9 9 9 9 9 !.b.d d d d d d d d d k.. .               ",
"    d d d d d d d l.m.n.o.9 9 9 9 9 9 9 9 9 9 9 9 9 9 ;.p.d d d d d d d d d q.. .               ",
"      d d d d d r.s.[.Z 9 9 9 9 9 9 9 9 9 9 9 9 9 9 9 ;.p.d d d d d d d d d t.. . .             ",
"      d d d d l.u.v.9 9 9 9 9 9 9 9 9 9 9 9 9 9 9 9 9 !.b.d d d d d d d d w.x.. . .             ",
"      d d d d y.z.9 9 9 9 9 9 9 9 9 9 9 9 9 9 9 9 9 9 s e d d d d d d d d A.B.. . .             ",
"        d d d B 0.9 9 9 9 9 9 9 9 9 9 9 9 9 9 9 9 9 C.b.1.d d d d d d d d D.E.. . .             ",
"        d d d F.M 9 9 9 9 9 9 9 9 9 9 9 9 9 9 9 G.H.b.7.d d d d d d d d I.J.@.. .               ",
"          d d f.r 9 9 9 9 9 9 9 9 9 9 9 9 9 9 K.L.M.1.d d d d d d d d #.N.O.% . .               ",
"          d d P.;.9 9 9 9 9 9 9 9 9 9 9 9 r !.6.7.d d d d d d d d d d Q.R.S.T.U.                ",
"            d V.q 9 9 9 9 9 9 9 9 9 9 9 (.W.X.1.d d d d d d d d d d Y.Z.y ; `.                  ",
"               +.+M 9 9 9 9 9 9 9 9 r ++@+#+d d d d d d d d d d #.Q.$+I ; ; ;                   ",
"                %+&+Z M 9 9 9 9 M }.*+=+l.d d d d d d d d d  .-+;+>+y ; ; ; ;                   ",
"                  ,+'+)+!+~+{+]+u.e 1.d d d d d d d d #.^+/+(+_+:+; ; ; ; ; ;                   ",
"                      d d d d d d d d d d d d d #.<+[+}+|+; ; ; ; ; ; ; ; ; ;                   ",
"                            d d 1+2+3+3+3+3+4+5+(+_+:+; ; ; ; ; ; ; ; ; ; ; ;                   ",
"                                      ; ; ; ; ; ; ; ; ; ; ; ; ; ; ; ; ; ; ;                     ",
"                                            ; ; ; ; ; ; ; ; ; ; ; ; ; ; ;                       ",
"                                                    ; ; ; ; ; ; ; ; ;                           ",
"                                                                                                "};
